<svg version="1.1" id="Layer_1" xmlns="http://www.w3.org/2000/svg" xmlns:xlink="http://www.w3.org/1999/xlink" x="0px" y="0px" width="19.917" height="24" viewBox="3.417 0 19.917 24" enable-background="new 3.417 0 19.917 24" xml:space="preserve"> <path d="M14,11h5l-2.5-2.5l1.42-1.42L22.84,12l-4.92,4.92L16.5,15.5L19,13h-5V11 M12,18c-3.314,0-6-2.686-6-6s2.686-6,6-6 c1.4,0,2.69,0.5,3.71,1.29l1.42-1.42l-0.18-0.14L16,0H8L7.05,5.73C5.19,7.19,4,9.46,4,12c0,2.55,1.19,4.81,3.05,6.27L8,24h8 l0.95-5.73l0.18-0.14l-1.42-1.42C14.69,17.5,13.4,18,12,18z" fill="#6D1579"></path> </svg>